<svg width="15" height="15" viewBox="0 0 15 15" fill="none" xmlns="http://www.w3.org/2000/svg">
<path d="M4.375 5.625C4.7894 5.625 5.18683 5.46038 5.47985 5.16735C5.77288 4.87433 5.9375 4.4769 5.9375 4.0625C5.9375 3.6481 5.77288 3.25067 5.47985 2.95765C5.18683 2.66462 4.7894 2.5 4.375 2.5C3.9606 2.5 3.56317 2.66462 3.27015 2.95765C2.97712 3.25067 2.8125 3.6481 2.8125 4.0625C2.8125 4.4769 2.97712 4.87433 3.27015 5.16735C3.56317 5.46038 3.9606 5.625 4.375 5.625ZM4.375 6.875C4.00566 6.875 3.63993 6.80225 3.2987 6.66091C2.95747 6.51957 2.64743 6.3124 2.38626 6.05124C2.1251 5.79007 1.91793 5.48003 1.77659 5.1388C1.63525 4.79757 1.5625 4.43184 1.5625 4.0625C1.5625 3.69316 1.63525 3.32743 1.77659 2.9862C1.91793 2.64497 2.1251 2.33493 2.38626 2.07376C2.64743 1.8126 2.95747 1.60543 3.2987 1.46409C3.63993 1.32275 4.00566 1.25 4.375 1.25C5.12092 1.25 5.83629 1.54632 6.36374 2.07376C6.89118 2.60121 7.1875 3.31658 7.1875 4.0625C7.1875 4.80842 6.89118 5.52379 6.36374 6.05124C5.83629 6.57868 5.12092 6.875 4.375 6.875ZM10.9375 8.125C11.269 8.125 11.587 7.9933 11.8214 7.75888C12.0558 7.52446 12.1875 7.20652 12.1875 6.875C12.1875 6.54348 12.0558 6.22554 11.8214 5.99112C11.587 5.7567 11.269 5.625 10.9375 5.625C10.606 5.625 10.288 5.7567 10.0536 5.99112C9.8192 6.22554 9.6875 6.54348 9.6875 6.875C9.6875 7.20652 9.8192 7.52446 10.0536 7.75888C10.288 7.9933 10.606 8.125 10.9375 8.125ZM10.9375 9.375C10.2745 9.375 9.63857 9.11161 9.16973 8.64277C8.70089 8.17393 8.4375 7.53804 8.4375 6.875C8.4375 6.21196 8.70089 5.57607 9.16973 5.10723C9.63857 4.63839 10.2745 4.375 10.9375 4.375C11.6005 4.375 12.2364 4.63839 12.7053 5.10723C13.1741 5.57607 13.4375 6.21196 13.4375 6.875C13.4375 7.53804 13.1741 8.17393 12.7053 8.64277C12.2364 9.11161 11.6005 9.375 10.9375 9.375ZM12.5 13.125V12.8125C12.5 12.3981 12.3354 12.0007 12.0424 11.7076C11.7493 11.4146 11.3519 11.25 10.9375 11.25C10.5231 11.25 10.1257 11.4146 9.83265 11.7076C9.53962 12.0007 9.375 12.3981 9.375 12.8125V13.125H8.125V12.8125C8.125 12.4432 8.19775 12.0774 8.33909 11.7362C8.48043 11.395 8.6876 11.0849 8.94876 10.8238C9.20993 10.5626 9.51997 10.3554 9.8612 10.2141C10.2024 10.0727 10.5682 10 10.9375 10C11.3068 10 11.6726 10.0727 12.0138 10.2141C12.355 10.3554 12.6651 10.5626 12.9262 10.8238C13.1874 11.0849 13.3946 11.395 13.5359 11.7362C13.6773 12.0774 13.75 12.4432 13.75 12.8125V13.125H12.5ZM6.25 13.125V10.625C6.25 10.1277 6.05246 9.65081 5.70083 9.29917C5.34919 8.94754 4.87228 8.75 4.375 8.75C3.87772 8.75 3.40081 8.94754 3.04917 9.29917C2.69754 9.65081 2.5 10.1277 2.5 10.625V13.125H1.25V10.625C1.25 9.7962 1.57924 9.00134 2.16529 8.41529C2.75134 7.82924 3.5462 7.5 4.375 7.5C5.2038 7.5 5.99866 7.82924 6.58471 8.41529C7.17076 9.00134 7.5 9.7962 7.5 10.625V13.125H6.25Z" fill="#666666"/>
</svg>
